<?xml version="1.0" standalone="no"?>
<!DOCTYPE svg PUBLIC "-//W3C//DTD SVG 20010904//EN"
 "http://www.w3.org/TR/2001/REC-SVG-20010904/DTD/svg10.dtd">
<svg version="1.0" xmlns="http://www.w3.org/2000/svg"
 width="460.000000pt" height="460.000000pt" viewBox="0 0 460.000000 460.000000"
 preserveAspectRatio="xMidYMid meet">
<metadata>
Created by potrace 1.14, written by Peter Selinger 2001-2017
</metadata>
<g transform="translate(0.000000,460.000000) scale(0.100000,-0.100000)"
fill="#000000" stroke="none">
<path d="M0 2300 l0 -2300 1230 0 1230 0 2 223 c3 205 4 220 18 192 10 -20 35
-40 75 -60 58 -29 65 -30 200 -30 140 0 140 0 138 23 l-3 23 43 -26 c28 -16
59 -25 85 -25 l41 0 -4 113 c-3 61 -7 194 -9 294 l-5 182 -37 68 c-20 37 -37
69 -38 69 0 1 -16 5 -33 9 -27 5 -33 3 -33 -10 0 -8 -7 -18 -15 -21 -8 -4 -12
-11 -8 -18 3 -6 3 -8 -2 -4 -4 4 -27 -7 -51 -24 -37 -26 -42 -34 -32 -47 10
-13 10 -14 -1 -5 -16 14 -51 6 -51 -11 0 -11 -34 -29 -52 -26 -4 0 -5 -8 -3
-19 2 -12 -1 -17 -10 -14 -7 3 -16 0 -20 -5 -3 -6 -10 -9 -15 -6 -5 3 -12 0
-16 -6 -5 -8 -3 -9 6 -4 9 6 11 4 6 -4 -5 -7 -15 -10 -23 -7 -8 3 -11 1 -8 -4
3 -6 -1 -10 -10 -10 -9 0 -14 -4 -11 -9 3 -5 -1 -12 -10 -15 -10 -4 -13 -2 -9
7 4 6 0 4 -9 -6 -18 -23 -34 -15 -73 35 l-29 36 -65 -35 c-35 -19 -104 -57
-154 -83 -49 -27 -112 -61 -140 -76 -27 -15 -72 -39 -100 -54 -27 -15 -72 -40
-99 -54 -71 -39 -73 -27 -6 55 19 23 47 56 62 73 15 16 40 48 56 70 l30 41
-29 0 c-19 0 -28 -4 -24 -13 2 -7 -4 -12 -15 -12 -10 0 -22 -5 -25 -10 -4 -6
-11 -8 -16 -5 -5 3 -6 0 -3 -8 4 -11 -6 -13 -44 -13 -34 1 -48 -3 -45 -11 3
-7 -3 -10 -16 -6 -11 3 -18 9 -16 14 3 4 -7 2 -21 -6 -15 -8 -31 -12 -36 -9
-11 7 -10 34 2 34 6 0 10 6 10 14 0 8 7 17 16 20 10 4 13 13 9 26 -4 14 -2 20
9 20 8 0 20 9 26 20 6 11 16 19 23 17 7 -1 11 6 9 15 -2 10 3 18 11 18 7 0 24
12 37 28 64 75 159 182 197 222 24 24 43 47 43 50 0 6 -340 78 -434 91 -83 13
-117 23 -116 34 2 10 215 71 295 84 52 9 36 14 -125 41 -126 21 -267 54 -277
64 -6 6 -4 7 72 29 162 47 484 121 492 113 14 -14 -17 -25 -182 -65 -194 -48
-189 -47 -232 -60 -17 -5 -34 -7 -37 -5 -4 2 -3 0 1 -5 9 -9 113 -34 213 -51
36 -6 89 -16 117 -22 40 -8 66 -8 108 1 51 11 55 15 55 40 0 26 -34 461 -44
562 -4 41 -1 50 24 74 l29 28 -18 36 c-26 49 -32 78 -20 108 12 32 99 116 164
160 69 45 91 40 129 -32 26 -50 31 -54 55 -48 14 3 28 8 30 10 3 2 -9 33 -27
69 -43 88 -42 114 8 154 50 40 165 100 191 100 46 0 80 -31 111 -98 75 -167
66 -153 96 -145 15 3 47 12 72 18 l45 11 3 57 c2 44 0 59 -12 63 -14 5 -16 40
-16 260 l0 254 31 0 c26 0 30 3 27 22 -2 17 -12 24 -33 28 l-30 5 -3 110 c-2
61 -6 165 -10 233 -7 112 -6 122 10 122 13 0 18 8 18 30 0 23 -5 30 -19 30
-24 0 -29 30 -37 246 -7 180 -1 226 36 259 25 22 126 31 160 13 33 -18 60 -98
67 -206 3 -46 11 -89 18 -95 6 -7 14 -51 18 -99 l6 -87 -42 -8 c-36 -7 -42
-12 -45 -37 -4 -29 -3 -29 41 -24 55 6 50 22 72 -242 8 -102 17 -192 19 -201
4 -19 -32 -39 -69 -39 -20 0 -24 -4 -21 -22 3 -13 5 -26 5 -29 1 -4 23 -5 50
-3 l49 4 6 -188 c4 -103 9 -213 12 -244 6 -55 5 -57 -25 -72 -16 -9 -46 -16
-66 -16 -34 0 -35 -1 -35 -38 l0 -38 78 13 c42 7 83 15 91 18 7 3 31 0 54 -6
44 -12 57 -3 57 39 0 16 -6 22 -21 22 -24 0 -25 -12 16 260 13 85 26 176 30
203 6 44 8 47 32 41 16 -4 28 -2 34 7 16 26 9 39 -22 39 -30 0 -30 1 -25 43 3
23 10 103 16 177 21 267 20 260 41 260 12 0 19 7 19 20 0 13 -7 20 -19 20 -17
0 -19 12 -26 165 -8 186 2 274 39 320 21 26 31 29 91 33 79 5 125 -13 145 -56
15 -33 32 -212 34 -352 l1 -105 -52 -3 c-44 -3 -53 -6 -53 -21 0 -15 11 -20
56 -26 l57 -7 -6 -88 c-4 -49 -10 -158 -13 -243 l-7 -155 -43 -7 c-24 -3 -48
-4 -53 0 -5 3 -12 1 -15 -4 -11 -18 25 -41 65 -41 30 0 39 -4 39 -17 1 -22
-53 -476 -56 -482 -2 -1 -26 -6 -55 -10 -52 -6 -53 -7 -57 -42 l-3 -36 118
-24 118 -24 17 -94 c12 -61 15 -98 8 -106 -7 -8 -30 -8 -97 1 -171 25 -202 27
-216 15 -8 -6 -18 -7 -23 -3 -5 4 -6 3 -3 -1 9 -11 -46 -68 -68 -71 -10 -2
-17 -7 -16 -12 2 -13 -28 -44 -38 -38 -5 3 -9 -1 -9 -9 0 -7 -10 -23 -23 -35
-25 -24 -43 -29 -31 -10 5 7 3 8 -5 4 -7 -5 -10 -10 -7 -13 3 -3 -6 -17 -20
-31 -13 -15 -24 -29 -24 -32 0 -7 67 -50 78 -50 4 0 50 46 102 102 52 56 104
110 115 120 17 17 32 18 155 12 74 -4 138 -9 142 -13 4 -3 10 -65 14 -138 l7
-132 31 13 c22 9 32 20 34 40 3 27 28 32 26 4 -1 -12 4 -12 31 1 18 9 28 19
23 22 -10 6 39 24 55 21 4 -1 10 5 13 13 4 8 12 15 19 15 7 0 18 6 25 14 9 12
5 17 -27 25 -21 5 -59 13 -85 16 -75 11 -58 28 20 20 147 -14 153 -14 158 0 3
7 14 15 25 18 10 3 19 11 19 19 0 10 -3 9 -10 -2 -8 -13 -10 -13 -10 2 0 9 6
19 13 21 6 3 3 6 -7 6 -20 1 -20 1 0 16 18 14 18 14 -6 15 -20 0 -22 2 -10 10
13 8 13 10 -2 11 -21 2 -27 3 -48 12 -15 6 -249 47 -269 47 -6 0 -11 4 -11 9
0 10 45 8 245 -15 93 -10 140 -11 165 -4 47 13 164 13 211 -2 82 -24 99 -87
40 -145 -20 -20 -49 -44 -64 -53 l-28 -17 38 -6 c21 -4 53 -9 71 -13 l32 -6 0
1266 0 1266 -2300 0 -2300 0 0 -2300z m4358 1833 c1 -167 -1 -253 -8 -253 -6
0 -10 84 -10 240 l0 240 -2020 0 -2020 0 -2 -762 c-2 -420 -3 -1211 -4 -1758
-1 -1079 -1 -1046 -11 -1037 -8 9 -18 3550 -10 3571 6 15 209 16 2044 14
l2038 -3 3 -252z m-2053 -73 c-8 -13 -1731 -14 -1740 0 -4 7 280 10 870 10
562 0 874 -3 870 -10z m-427 -67 c-240 -2 -636 -2 -880 0 -244 1 -47 2 437 2
484 0 683 -1 443 -2z m-1074 -58 c69 -33 98 -149 54 -215 -42 -62 -69 -74
-161 -75 -66 0 -82 3 -82 15 0 12 17 16 77 18 72 3 80 5 113 36 31 29 35 39
35 82 0 86 -42 120 -156 128 -48 3 -69 8 -69 18 0 30 120 25 189 -7z m448 6
c14 -6 39 -27 55 -47 27 -36 28 -43 32 -162 3 -116 2 -124 -15 -120 -17 3 -20
17 -25 118 -3 63 -8 122 -12 130 -13 27 -72 60 -108 60 -47 0 -97 -33 -115
-77 -21 -49 -16 -284 6 -327 21 -41 81 -70 126 -62 47 9 94 53 103 96 4 21 14
36 24 38 23 5 22 -27 -3 -81 -53 -113 -220 -118 -284 -8 -16 28 -19 54 -21
155 -2 216 16 262 120 294 36 11 66 15 75 10 8 -4 27 -12 42 -17z m-662 -257
c0 -219 -2 -264 -14 -264 -8 0 -17 7 -20 16 -11 28 -7 484 5 505 24 45 29 -1
29 -257z m918 -3 c-3 -234 -4 -256 -20 -259 -17 -3 -18 14 -18 261 0 145 3
267 7 270 3 4 12 2 20 -4 11 -10 13 -62 11 -268z m207 249 c52 -49 57 -141 9
-191 l-24 -26 23 -10 c29 -13 67 -87 67 -129 -1 -46 -35 -112 -72 -134 -43
-26 -198 -30 -198 -5 0 12 14 15 66 15 110 0 164 42 164 129 0 31 -7 49 -30
74 -16 19 -30 39 -30 43 0 5 -39 8 -86 6 -79 -3 -85 -2 -82 15 3 15 14 18 72
19 65 1 72 4 98 33 38 43 38 88 -2 126 -30 29 -31 29 -162 35 -5 0 -8 7 -8 16
0 14 11 16 85 12 71 -4 89 -8 110 -28z m448 11 c14 -6 38 -27 54 -47 26 -35
28 -44 31 -152 3 -72 0 -118 -7 -125 -18 -18 -22 -4 -27 109 -6 122 -14 146
-60 174 -47 29 -104 26 -143 -7 -41 -37 -51 -76 -51 -210 0 -140 15 -185 71
-213 46 -24 57 -24 108 -4 39 16 64 50 76 107 3 16 11 27 18 24 39 -13 3 -114
-55 -152 -36 -24 -48 -27 -100 -23 -67 5 -101 26 -129 78 -16 29 -19 58 -19
188 0 163 5 186 52 228 46 42 112 51 181 25z m-1333 -414 c33 -67 47 -104 40
-111 -14 -14 -22 -4 -75 102 -42 84 -53 134 -25 117 6 -4 33 -52 60 -108z
m371 -134 c-8 -3 7 -16 40 -32 42 -20 58 -36 76 -71 21 -39 23 -56 21 -145 -2
-81 -6 -100 -18 -100 -12 0 -16 21 -20 110 -3 61 -9 117 -13 125 -12 25 -75
60 -108 60 -44 0 -97 -36 -114 -77 -21 -49 -21 -267 0 -315 49 -120 235 -85
235 43 0 13 7 19 21 19 19 0 21 -4 16 -36 -7 -45 -42 -97 -78 -118 -41 -24
-129 -21 -169 7 -66 44 -75 73 -74 242 1 118 4 157 17 181 21 41 73 84 101 84
12 0 31 7 42 15 10 8 24 14 29 14 6 0 4 -3 -4 -6z m936 -21 c96 3 125 -12 155
-79 27 -62 21 -129 -16 -178 -36 -47 -60 -55 -157 -55 -64 0 -79 3 -79 15 0
12 14 15 70 15 116 0 160 37 160 132 -1 89 -39 118 -154 118 l-76 0 0 28 c0
17 3 22 8 14 6 -8 33 -11 89 -10z m-1257 -18 c0 -11 -16 -14 -67 -14 -81 0
-127 -23 -149 -75 -22 -53 -20 -279 4 -324 24 -48 73 -71 149 -71 49 0 63 -3
63 -15 0 -12 -16 -15 -84 -15 -77 0 -87 2 -117 27 -55 47 -69 91 -69 233 0
150 9 185 55 230 33 32 42 35 113 40 87 6 102 4 102 -16z m960 7 c0 -11 -4
-23 -10 -26 -15 -9 -12 -25 4 -25 24 0 27 -29 25 -233 -1 -214 -4 -237 -25
-237 -12 0 -14 39 -14 214 0 118 -4 217 -8 220 -4 2 -32 -33 -61 -80 -30 -46
-60 -84 -68 -84 -10 0 -12 -6 -8 -20 10 -33 -31 -26 -44 8 -6 15 -36 68 -66
117 l-54 90 -3 -230 c-3 -210 -5 -230 -20 -233 -17 -3 -18 15 -18 263 0 248 1
266 18 263 9 -2 18 -13 20 -26 2 -12 7 -20 11 -18 4 3 12 2 18 -2 9 -7 93
-139 93 -148 0 -3 7 -16 16 -30 16 -23 17 -23 30 -7 7 10 14 23 14 30 0 7 13
32 29 55 15 24 44 69 65 101 37 59 56 71 56 38z m180 -256 c0 -229 -2 -265
-15 -265 -13 0 -15 36 -15 265 0 229 2 265 15 265 13 0 15 -36 15 -265z m-142
-322 c-240 -2 -636 -2 -880 0 -244 1 -47 2 437 2 484 0 683 -1 443 -2z m432
-63 c0 -7 -298 -10 -875 -10 -577 0 -875 3 -875 10 0 7 298 10 875 10 577 0
875 -3 875 -10z m-605 -1120 c-3 -5 -12 -10 -18 -10 -7 0 -6 4 3 10 19 12 23
12 15 0z"/>
<path d="M3080 2076 c0 -12 -66 -164 -91 -209 -6 -11 -9 -20 -7 -20 2 -1 14
-8 26 -15 13 -7 25 -12 27 -10 13 14 33 82 28 95 -4 9 -2 14 3 10 6 -3 25 27
42 68 35 81 37 89 22 80 -5 -3 -10 -1 -10 4 0 6 -9 11 -20 11 -11 0 -20 -6
-20 -14z"/>
<path d="M4358 2054 c-4 -3 -14 -7 -25 -8 -10 -2 -18 -11 -18 -22 0 -21 -29
-31 -40 -14 -4 7 -11 8 -18 1 -13 -10 -107 -61 -231 -124 -45 -22 -89 -47 -98
-55 -10 -8 -18 -11 -19 -6 0 5 -4 0 -9 -11 -5 -11 -9 -50 -9 -87 l-1 -66 99
54 c54 30 104 54 110 54 6 0 11 4 11 9 0 5 12 14 28 20 15 5 68 32 117 59 276
148 325 176 325 182 0 15 -209 28 -222 14z"/>
<path d="M4520 1974 c-82 -46 -176 -96 -265 -144 -38 -20 -90 -48 -115 -62
-25 -14 -74 -41 -110 -60 -36 -20 -81 -44 -100 -55 l-35 -20 3 -94 c2 -66 -1
-107 -12 -136 -8 -24 -11 -43 -7 -43 5 0 62 -54 128 -119 102 -102 122 -118
138 -109 14 9 17 8 14 -3 -6 -17 33 -57 51 -51 7 3 10 0 6 -7 -4 -6 -1 -11 9
-11 13 0 14 -4 4 -21 -7 -14 -7 -19 0 -15 16 10 25 -42 11 -59 -7 -8 -18 -15
-24 -15 -6 0 -5 4 3 9 10 7 7 9 -12 8 l-26 -2 23 -25 c103 -115 126 -144 119
-150 -4 -5 -55 2 -113 15 -58 12 -143 30 -190 38 -47 9 -129 26 -183 37 -151
31 -135 40 -195 -112 -29 -73 -52 -138 -52 -144 0 -7 -7 -14 -15 -18 -12 -4
-15 -24 -15 -91 0 -47 4 -85 9 -85 10 0 83 57 93 73 4 7 8 -32 8 -85 l0 -98
335 0 335 0 1 218 c1 146 4 199 9 162 5 -30 8 -133 9 -227 l1 -173 -345 0
-345 0 0 -150 0 -150 465 0 465 0 0 1005 c0 553 -3 1005 -7 1005 -5 0 -37 -17
-73 -36z"/>
<path d="M2510 1973 c-8 -3 -28 -15 -43 -26 -44 -30 -18 -45 31 -17 34 19 43
20 63 10 23 -13 23 -13 8 11 -17 25 -34 31 -59 22z"/>
<path d="M2406 1911 c-4 -5 -33 -25 -66 -43 -33 -18 -60 -38 -60 -45 0 -16 2
-16 35 -3 16 6 23 14 19 22 -4 6 -3 8 4 4 13 -8 105 45 104 59 -1 14 -29 18
-36 6z"/>
<path d="M3671 1881 c-8 -5 -10 -14 -6 -21 5 -8 4 -11 -3 -7 -5 4 -18 4 -28 0
-16 -6 -16 -7 1 -19 14 -11 22 -11 32 -2 11 9 17 8 24 -3 6 -10 9 -3 9 24 0
38 -5 43 -29 28z"/>
<path d="M3746 1672 c-6 -45 -9 -50 -29 -45 -18 4 -19 3 -7 -7 12 -10 11 -11
-8 -7 -19 4 -22 2 -17 -14 4 -10 2 -19 -4 -19 -5 0 -12 8 -14 18 -3 12 -5 11
-6 -6 0 -13 -5 -21 -10 -18 -5 3 -11 -5 -13 -19 -3 -14 -4 -25 -2 -25 2 0 32
15 67 34 35 18 68 35 75 37 8 3 6 20 -7 63 l-18 59 -7 -51z"/>
<path d="M3730 1545 c-30 -19 -60 -39 -66 -44 -7 -5 -14 -8 -17 -5 -2 2 -9 -2
-16 -9 -9 -12 -6 -17 17 -26 15 -6 33 -20 40 -31 11 -18 10 -20 -17 -20 -16 0
-41 4 -54 9 -14 6 -28 7 -31 4 -7 -7 58 -73 72 -73 9 0 141 195 145 213 4 21
-21 15 -73 -18z"/>
<path d="M3015 1470 c-3 -5 -1 -10 4 -10 6 0 11 5 11 10 0 6 -2 10 -4 10 -3 0
-8 -4 -11 -10z"/>
<path d="M2065 1420 c4 -6 11 -8 16 -5 14 9 11 15 -7 15 -8 0 -12 -5 -9 -10z"/>
<path d="M1780 1362 l-145 -36 60 -12 c106 -23 369 -72 415 -79 25 -4 53 -9
63 -12 13 -3 5 14 -27 61 -25 35 -46 72 -46 81 0 46 -127 45 -320 -3z"/>
<path d="M3836 1268 c-16 -46 -38 -101 -47 -123 -17 -37 -17 -40 -1 -49 21
-12 151 -33 175 -28 9 2 17 10 17 17 0 7 6 15 13 18 8 3 5 12 -10 29 -27 28
-29 38 -8 38 8 0 27 -13 42 -30 14 -16 30 -30 35 -30 5 0 2 7 -6 16 -21 21
-20 30 1 13 25 -21 7 7 -33 51 -18 19 -56 62 -85 95 -29 33 -55 61 -58 63 -4
1 -19 -35 -35 -80z m144 -70 c0 -6 -7 -5 -15 2 -8 7 -15 17 -15 22 0 6 7 5 15
-2 8 -7 15 -17 15 -22z"/>
<path d="M2941 1180 c-10 -31 -4 -39 17 -18 14 14 16 48 3 48 -5 0 -14 -13
-20 -30z"/>
<path d="M2160 1187 c0 -8 -3 -17 -8 -19 -16 -7 -81 -91 -76 -99 3 -5 -1 -9
-9 -9 -8 0 -21 -10 -30 -23 -15 -24 -15 -25 36 -27 30 -2 113 14 135 26 17 8
31 10 43 4 14 -8 16 -6 12 10 -3 12 0 20 6 20 7 0 9 -4 6 -10 -3 -5 -2 -10 4
-10 29 0 18 26 -49 118 -21 27 -70 41 -70 19z m-85 -158 c11 -16 1 -19 -13 -3
-7 8 -8 14 -3 14 5 0 13 -5 16 -11z"/>
<path d="M2929 1110 c-21 -17 -22 -21 -9 -30 25 -17 36 -11 38 20 3 35 1 36
-29 10z"/>
<path d="M3735 1005 c-14 -32 -25 -61 -25 -65 0 -12 20 -17 197 -51 93 -17
211 -39 263 -49 52 -10 96 -17 97 -16 4 4 -109 116 -117 116 -6 0 -10 5 -10
11 0 5 -5 7 -11 3 -6 -3 -15 0 -20 7 -8 12 -11 12 -20 -1 -9 -12 -10 -11 -6 7
3 15 1 20 -9 16 -8 -3 -28 0 -44 7 -24 10 -33 10 -45 0 -20 -17 -45 -5 -45 21
0 14 -5 19 -14 16 -7 -3 -17 -2 -22 3 -5 4 -25 10 -44 13 -19 3 -49 8 -67 12
-31 7 -33 6 -58 -50z m65 -5 c0 -5 -2 -10 -4 -10 -3 0 -8 5 -11 10 -3 6 -1 10
4 10 6 0 11 -4 11 -10z"/>
<path d="M2228 1023 c7 -3 16 -2 19 1 4 3 -2 6 -13 5 -11 0 -14 -3 -6 -6z"/>
<path d="M2329 1002 c7 -13 10 -26 7 -30 -3 -3 -6 0 -6 7 0 7 -4 9 -10 6 -5
-3 -10 0 -10 7 0 8 -5 6 -11 -5 -10 -17 -56 -42 -71 -39 -4 1 -4 -6 -1 -15 4
-11 3 -14 -5 -9 -14 8 -84 -63 -75 -77 3 -6 1 -7 -4 -4 -6 4 -34 -19 -61 -51
-28 -32 -72 -81 -97 -108 -25 -27 -50 -57 -56 -66 -8 -15 -7 -16 19 -5 43 19
482 258 486 266 6 10 -61 91 -69 83 -5 -4 -6 -2 -2 3 7 13 0 24 -27 45 -18 14
-19 14 -7 -8z"/>
<path d="M3512 261 c-40 -20 -69 -41 -65 -46 4 -4 3 -5 -4 -1 -13 7 -73 -19
-84 -36 -3 -5 -9 -9 -13 -8 -4 2 -25 -6 -47 -16 l-39 -19 0 -67 0 -68 195 0
196 0 -3 146 -3 147 -30 2 c-19 2 -57 -10 -103 -34z"/>
</g>
</svg>
